<svg xmlns="http://www.w3.org/2000/svg" xmlns:xlink="http://www.w3.org/1999/xlink" width="88.53" height="82.411" viewBox="0 0 88.53 82.411"><defs><linearGradient id="a" x1="0.278" y1="0.602" x2="0.829" y2="-0.08" gradientUnits="objectBoundingBox"><stop offset="0" stop-color="#d9000d"/><stop offset="1" stop-color="#920018"/></linearGradient></defs><path d="M1042.661,524.379a26.978,26.978,0,0,0-36.365-1.631,26.974,26.974,0,0,0-36.363,39.777l36.365,36.364,36.156-36.156a27.352,27.352,0,0,0,8.108-19.021A26.8,26.8,0,0,0,1042.661,524.379Zm-3.514,34.534-.049.049-27.4,27.4a7.645,7.645,0,0,1-10.812,0l-27.4-27.4-.052-.052a3.165,3.165,0,0,1,2.273-5.375h11.331a4.366,4.366,0,0,0,3.781-2.183l3.519-6.1a3.3,3.3,0,0,1,5.716,0l15.326,26.545,9.58-16.594a3.346,3.346,0,0,1,2.9-1.673h9.011A3.166,3.166,0,0,1,1039.147,558.913ZM972.138,548.5a5.045,5.045,0,0,1-5.067-4.992v-.052A21.934,21.934,0,0,1,989.2,521.518a22.27,22.27,0,0,1,15.5,6.607l.02.021a2.24,2.24,0,0,0,3.164-.009,22.3,22.3,0,0,1,15.062-6.61,21.935,21.935,0,0,1,22.578,21.925v.023a5.026,5.026,0,0,1-5.026,5.021h-13.93a6.132,6.132,0,0,0-5.311,3.066l-3.009,5.212a3.3,3.3,0,0,1-5.715,0l-15.326-26.545-9.515,16.48a3.575,3.575,0,0,1-3.1,1.787Z" transform="translate(-962.032 -516.478)" fill="url(#a)"/></svg>