<svg xmlns="http://www.w3.org/2000/svg" width="28" height="28" viewBox="0 0 28 28"><circle cx="14" cy="14" r="14" fill="#0cf"/><path d="M1282.181,4517.668l.717-.3c.673-.279,1.391.173,1.68,1.056l.573,1.758a2.46,2.46,0,0,1-.343,2.226l-1.263,1.559a8.411,8.411,0,0,0,.723,2.754,7.291,7.291,0,0,0,1.514,2.249l1.517-.659a1.214,1.214,0,0,1,1.553.712l.822,1.569a2.486,2.486,0,0,1-.172,2.527l-.546.712a1.711,1.711,0,0,1-2.035.675q-2.539-1.031-4.669-6.115t-1.505-8.639A2.686,2.686,0,0,1,1282.181,4517.668Z" transform="translate(-1270.925 -4511.959)" fill="#fff"/></svg>