<svg id="All_work" data-name="All  work" xmlns="http://www.w3.org/2000/svg" xmlns:xlink="http://www.w3.org/1999/xlink" viewBox="0 0 993.6 699.3"><defs><style>.cls-1{fill:url(#linear-gradient);}.cls-2{font-size:76.53px;}.cls-2,.cls-7{font-family:Montserrat-Bold, Montserrat;font-weight:700;}.cls-3{letter-spacing:-0.01em;}.cls-4{letter-spacing:-0.01em;}.cls-5{letter-spacing:0em;}.cls-6{letter-spacing:0em;}.cls-7{font-size:36px;}.cls-8{letter-spacing:-0.01em;}.cls-9{letter-spacing:0em;}.cls-10{letter-spacing:-0.02em;}</style><linearGradient id="linear-gradient" x1="1077.46" y1="749.7" x2="1306.74" y2="485.69" gradientUnits="userSpaceOnUse"><stop offset="0" stop-color="#e30613"/><stop offset="1" stop-color="#a51621"/></linearGradient></defs><path class="cls-1" d="M1340.85,553.6A126.75,126.75,0,0,0,1170,545.93,126.73,126.73,0,0,0,999.15,732.82L1170,903.67,1339.87,733.8C1363.63,710,1377.65,678,1378,644.43A125.84,125.84,0,0,0,1340.85,553.6Zm-16.51,162.25-.23.23L1195.4,844.79a35.92,35.92,0,0,1-50.8,0L1015.89,716.08l-.24-.25c-9.27-9.34-2.48-25.25,10.67-25.25h53.24a20.49,20.49,0,0,0,17.76-10.26l16.54-28.64a15.5,15.5,0,0,1,26.85,0l72,124.71,45-78a15.71,15.71,0,0,1,13.61-7.86h42.34C1326.85,690.58,1333.62,706.51,1324.34,715.85Zm-314.83-49a23.69,23.69,0,0,1-23.8-23.45v-.24a103,103,0,0,1,104-103.05c27.37.23,53.46,11.68,72.82,31l.1.09a10.53,10.53,0,0,0,14.87,0c18.86-18.85,44.1-30.3,70.76-31.06a103.08,103.08,0,0,1,106.08,103v.11a23.62,23.62,0,0,1-23.62,23.58h-65.45a28.83,28.83,0,0,0-25,14.41l-14.14,24.49a15.51,15.51,0,0,1-26.85,0l-72-124.72-44.71,77.43A16.79,16.79,0,0,1,1068,666.9Z" transform="translate(-686.29 -516.48)"/><text id="name" class="cls-2" transform="translate(0 465.01)">US<tspan class="cls-3" x="109.13" y="0">Ł</tspan><tspan x="155.66" y="0">UGI </tspan><tspan class="cls-4" x="321.73" y="0">P</tspan><tspan x="376.99" y="0">IEL</tspan><tspan class="cls-5" x="499.67" y="0">Ę</tspan><tspan class="cls-6" x="550.87" y="0">GNIARSKIE</tspan></text><g id="slogan"><text class="cls-7" transform="translate(308.46 531.88)">KĘ<tspan class="cls-8" x="50.8" y="0">P</tspan><tspan class="cls-9" x="76.79" y="0">NO I O</tspan><tspan class="cls-10" x="198.83" y="0">K</tspan><tspan x="224.57" y="0">OLICE</tspan></text></g><text x="-686.29" y="-516.48"/></svg>